<svg width="106" height="34" viewBox="0 0 106 34" fill="none" xmlns="http://www.w3.org/2000/svg">
<path fill-rule="evenodd" clip-rule="evenodd" d="M55.7377 18.9213H41.1683C41.377 21.4058 43.3068 22.9945 46.2798 22.8931C48.1227 22.8931 49.7395 22.1494 50.6088 20.7128H55.1813C53.6514 24.5663 50.4524 26.7466 46.4188 26.7466C43.7067 26.7466 41.4639 25.8508 39.5862 24.0255C37.8824 22.2846 36.874 19.8677 36.874 17.5353C36.874 15.0677 37.7433 12.8874 39.4297 11.1466C41.2726 9.27054 43.6719 8.22266 46.1581 8.22266C49.2527 8.22266 52.1214 9.74378 54.0512 12.2283C55.1813 13.817 55.7377 15.6931 55.7377 18.0255V18.9213ZM41.2197 15.6071H51.147C50.469 13.2747 48.6956 11.9902 46.0182 11.9902C43.8623 11.9902 41.8282 13.4269 41.2197 15.6071Z" fill="black"/>
<path fill-rule="evenodd" clip-rule="evenodd" d="M62.1521 3.08398V10.1657C63.7864 8.88117 65.5771 8.37412 67.7851 8.42483C70.1843 8.42483 72.375 9.16849 74.0614 10.7572C76.0955 12.4981 77.1735 15.0671 77.1735 17.6361C77.1735 20.4248 75.9564 23.0445 73.7658 24.8699C72.1316 26.1544 70.1322 26.8981 67.8025 26.8981C65.664 26.8981 63.8385 26.3065 62.1521 25.022V26.4586H57.9795V3.08398H62.1521ZM67.5067 12.4141C64.5511 12.4141 62.3084 14.6789 62.3084 17.7042C62.3084 20.5774 64.6555 22.8422 67.2807 22.8253C70.5493 22.8253 72.792 20.5436 72.792 17.6197C72.792 14.831 70.4623 12.4141 67.5067 12.4141Z" fill="black"/>
<path fill-rule="evenodd" clip-rule="evenodd" d="M84.1097 3.08398H80.0762V7.00511H84.1097V3.08398ZM84.1097 8.83008H80.0762V26.4582H84.1097V8.83008Z" fill="black"/>
<path fill-rule="evenodd" clip-rule="evenodd" d="M106 26.4576H101.966H101.949V24.2773C100.941 26.1026 99.0978 26.8463 96.2987 26.8463C90.9612 26.8463 86.9277 22.8745 86.9277 17.5843C86.9277 15.0998 87.797 12.835 89.4835 11.0942C91.3263 9.21812 93.4996 8.37305 96.2118 8.37305C98.8544 8.37305 100.732 9.20122 101.966 10.9421V8.82938H106V26.4576ZM96.3848 12.3438C93.5162 12.3438 91.1865 14.524 91.1865 17.3973C91.1865 20.5071 93.5857 22.6874 96.4544 22.6874C99.097 22.6874 101.496 20.355 101.496 17.6339C101.496 14.6085 99.0275 12.3438 96.3848 12.3438Z" fill="black"/>
<path d="M0.15577 34H11.1635L23.0712 22.4763L34.9444 34H46.0905L28.6443 17.0672L46.2463 0H35.1001L23.0712 11.6917L11.1116 0H0L17.4981 17.0672L0.15577 34Z" fill="black"/>
</svg>